<?xml version="1.0" standalone="no"?>
<!DOCTYPE svg PUBLIC "-//W3C//DTD SVG 20010904//EN"
 "http://www.w3.org/TR/2001/REC-SVG-20010904/DTD/svg10.dtd">
<svg version="1.0" xmlns="http://www.w3.org/2000/svg"
 width="700.000000pt" height="700.000000pt" viewBox="0 0 700.000000 700.000000"
 preserveAspectRatio="xMidYMid meet">
<metadata>
Created by potrace 1.14, written by Peter Selinger 2001-2017
</metadata>
<g transform="translate(0.000000,700.000000) scale(0.100000,-0.100000)"
fill="#000000" stroke="none">
<path d="M1573 6367 c-67 -45 -171 -120 -230 -167 -139 -109 -424 -394 -537
-535 -1014 -1272 -1014 -3059 0 -4330 113 -142 388 -417 529 -529 1192 -949
2850 -1016 4105 -165 183 124 323 241 501 418 187 188 299 323 434 526 331
498 540 1110 570 1665 3 58 8 138 11 177 l5 73 -1732 2 -1733 3 -890 1472
c-490 810 -895 1472 -901 1472 -5 1 -65 -36 -132 -82z"/>
</g>
</svg>
